<?xml version="1.0" encoding="UTF-8"?>
<svg xmlns="http://www.w3.org/2000/svg" id="Layer_1" data-name="Layer 1" viewBox="0 0 24 24">
  <path d="M23.853,10.105l-11.874,11.854c-1.324,1.321-3.087,2.048-4.963,2.048s-3.64-.728-4.963-2.048c-1.324-1.32-2.053-3.079-2.053-4.952s.729-3.632,2.053-4.953L12.656,1.469C13.602,.526,14.861,.006,16.201,.006s2.6,.52,3.545,1.463c.946,.943,1.466,2.2,1.466,3.538s-.521,2.594-1.466,3.537l-10.604,10.584c-1.132,1.131-3.121,1.131-4.253,0-.568-.567-.881-1.32-.881-2.122s.313-1.557,.881-2.123L14.645,5.144c.194-.194,.512-.195,.707,0,.195,.195,.195,.512,0,.707L5.595,15.591c-.379,.378-.587,.88-.587,1.415s.208,1.036,.587,1.414c.744,.742,2.099,.743,2.841,0L19.04,7.836c.756-.754,1.172-1.759,1.172-2.829s-.417-2.075-1.172-2.83c-.757-.755-1.765-1.171-2.839-1.171s-2.082,.416-2.839,1.171L2.759,12.762c-1.134,1.131-1.759,2.639-1.759,4.245s.625,3.113,1.759,4.244c1.135,1.133,2.646,1.756,4.257,1.756s3.122-.624,4.257-1.756l11.874-11.854c.194-.194,.512-.195,.707,0,.195,.195,.195,.512,0,.707Z"/>
</svg>
