<?xml version="1.0" encoding="UTF-8"?>
<svg xmlns="http://www.w3.org/2000/svg" id="Layer_1" data-name="Layer 1" viewBox="0 0 24 24">
  <circle cx="1.75" cy="17.313" r=".75"/>
  <circle cx="1.75" cy="12.001" r=".75"/>
  <circle cx="1.75" cy="6.687" r=".75"/>
  <path d="M22.5,11.5H5.592c-.276,0-.5,.224-.5,.5s.224,.5,.5,.5H22.5c.276,0,.5-.224,.5-.5s-.224-.5-.5-.5Z"/>
  <path d="M5.592,7.187H22.5c.276,0,.5-.224,.5-.5s-.224-.5-.5-.5H5.592c-.276,0-.5,.224-.5,.5s.224,.5,.5,.5Z"/>
  <path d="M22.5,16.813H5.592c-.276,0-.5,.224-.5,.5s.224,.5,.5,.5H22.5c.276,0,.5-.224,.5-.5s-.224-.5-.5-.5Z"/>
</svg>
