<svg xmlns="http://www.w3.org/2000/svg"  viewBox="0 0 50 50" width="25px" height="25px"><path d="M40.498,23H17.627c-1.1,0-2.059,0.705-2.387,1.754l-4.024,12.879C11.592,37.861,12.029,38,12.5,38h23.512	c1.1,0,2.059-0.705,2.387-1.754l3.53-11.298c0.145-0.461,0.062-0.948-0.223-1.336C41.42,23.223,40.98,23,40.498,23z M37.5,15h-15	c-0.753,0-1.499-0.249-2.1-0.7L18,12.5c-0.43-0.322-0.962-0.5-1.5-0.5h-4c-1.378,0-2.5,1.122-2.5,2.5v21	c0,0.503,0.152,0.969,0.408,1.362l3.876-12.406C14.745,22.987,16.087,22,17.627,22H40v-4.5C40,16.122,38.878,15,37.5,15z M37.5,14	c1.93,0,3.5,1.57,3.5,3.5v4.558c0.602,0.122,1.138,0.452,1.512,0.961c0.476,0.647,0.611,1.459,0.372,2.227l-3.53,11.298	C38.894,38.013,37.551,39,36.012,39H12.5C10.57,39,9,37.43,9,35.5v-21c0-1.93,1.57-3.5,3.5-3.5h4c0.753,0,1.499,0.249,2.1,0.7	l2.4,1.8c0.429,0.322,0.962,0.5,1.5,0.5H37.5z"/></svg>